<svg width="20" height="20" viewBox="0 0 20 20" fill="none" xmlns="http://www.w3.org/2000/svg">
<path fill-rule="evenodd" clip-rule="evenodd" d="M6.49961 4.3501C5.86448 4.3501 5.34961 4.86497 5.34961 5.5001V7.5001C5.34961 8.13523 5.86448 8.6501 6.49961 8.6501H8.49961C9.13474 8.6501 9.64961 8.13523 9.64961 7.5001V5.5001C9.64961 4.86497 9.13474 4.3501 8.49961 4.3501H6.49961ZM6.64961 7.3501V5.6501H8.34961V7.3501H6.64961Z" fill="#CCCCCC"/>
<path fill-rule="evenodd" clip-rule="evenodd" d="M10.3496 5.5001C10.3496 4.86497 10.8645 4.3501 11.4996 4.3501H13.4996C14.1347 4.3501 14.6496 4.86497 14.6496 5.5001V7.5001C14.6496 8.13523 14.1347 8.6501 13.4996 8.6501H11.4996C10.8645 8.6501 10.3496 8.13523 10.3496 7.5001V5.5001ZM11.6496 5.6501V7.3501H13.3496V5.6501H11.6496Z" fill="#CCCCCC"/>
<path fill-rule="evenodd" clip-rule="evenodd" d="M6.49961 9.3501C5.86448 9.3501 5.34961 9.86497 5.34961 10.5001V12.5001C5.34961 13.1352 5.86448 13.6501 6.49961 13.6501H8.49961C9.13474 13.6501 9.64961 13.1352 9.64961 12.5001V10.5001C9.64961 9.86497 9.13474 9.3501 8.49961 9.3501H6.49961ZM6.64961 12.3501V10.6501H8.34961V12.3501H6.64961Z" fill="#CCCCCC"/>
<path fill-rule="evenodd" clip-rule="evenodd" d="M4.99961 1.3501C3.53606 1.3501 2.34961 2.53654 2.34961 4.0001V16.0001C2.34961 17.4637 3.53605 18.6501 4.99961 18.6501H14.9996C16.4632 18.6501 17.6496 17.4637 17.6496 16.0001V4.0001C17.6496 2.53654 16.4632 1.3501 14.9996 1.3501H4.99961ZM3.64961 4.0001C3.64961 3.25451 4.25403 2.6501 4.99961 2.6501H14.9996C15.7452 2.6501 16.3496 3.25451 16.3496 4.0001V16.0001C16.3496 16.7457 15.7452 17.3501 14.9996 17.3501H4.99961C4.25402 17.3501 3.64961 16.7457 3.64961 16.0001V4.0001Z" fill="#CCCCCC"/>
</svg>
