<svg width="40" height="40" viewBox="0 0 40 40" fill="none" xmlns="http://www.w3.org/2000/svg">
<path d="M14.5198 10H10.65L10.5076 10.0061C9.66302 10.0782 9 10.7867 9 11.65V27.65L9.00606 27.7924C9.07824 28.637 9.78669 29.3 10.65 29.3H18.15V28H10.65L10.5795 27.9929C10.42 27.9603 10.3 27.8191 10.3 27.65V11.65L10.3071 11.5795C10.3397 11.42 10.4809 11.3 10.65 11.3H13.826L15.8384 13.3H27.65L27.7205 13.3071C27.88 13.3397 28 13.4809 28 13.65V18H29.3V13.65L29.2939 13.5076C29.2218 12.663 28.5133 12 27.65 12H16.531L14.5198 10Z" fill="#333333"/>
<path d="M26.15 19C22.2012 19 19 22.2012 19 26.15C19 30.0988 22.2012 33.3 26.15 33.3C30.0988 33.3 33.3 30.0988 33.3 26.15C33.3 25.6322 33.2449 25.1268 33.14 24.6397L34.3564 25.4601L35.0833 24.3823L31.8478 22.2L29.6655 25.4354L30.7432 26.1624L31.7939 24.6047C31.9282 25.0965 32 25.6146 32 26.15C32 29.3809 29.3809 32 26.15 32C22.9191 32 20.3 29.3809 20.3 26.15C20.3 22.9191 22.9191 20.3 26.15 20.3C27.6006 20.3 28.9265 20.8272 29.9489 21.7011L30.7936 20.713C29.5446 19.6453 27.9218 19 26.15 19Z" fill="#333333"/>
<path d="M25.5 25.8784V22.3225H26.8V26.4216L24.0762 29.1124L23.1626 28.1876L25.5 25.8784Z" fill="#333333"/>
</svg>
