<svg width="24" height="24" viewBox="0 0 24 24" fill="none" xmlns="http://www.w3.org/2000/svg">
<path d="M22.1946 14.0122C22.4469 13.9554 22.7006 14.1014 22.7776 14.3481L23.4778 16.6001C23.6116 17.0313 23.1465 17.403 22.7551 17.1772L22.3557 16.9468L20.1614 20.7466L20.0901 20.856C20.0147 20.9604 19.9262 21.0509 19.8274 21.1255C19.7943 21.1504 19.7599 21.1734 19.7249 21.1948C19.6549 21.2376 19.5814 21.2738 19.5051 21.3022C19.467 21.3165 19.4282 21.3288 19.3889 21.3394C19.3105 21.3604 19.23 21.3736 19.1487 21.3794C19.0612 21.3856 18.973 21.3808 18.885 21.3687C18.7275 21.3468 18.5712 21.2967 18.425 21.2124L15.2209 19.3638L13.3723 22.564C13.0212 23.1717 12.244 23.3803 11.636 23.0298C11.0279 22.679 10.819 21.9013 11.1702 21.2935L13.6545 16.9937C13.918 16.5378 14.4216 16.3067 14.9133 16.3677C14.9952 16.3778 15.0765 16.3967 15.1565 16.4233C15.2367 16.45 15.3158 16.4849 15.3918 16.5288L18.594 18.3765L20.1536 15.6763L19.7542 15.4458C19.3628 15.22 19.4522 14.6315 19.8928 14.5317L22.1946 14.0122Z" fill="url(#paint0_linear_21655_30995)"/>
<path d="M11.25 1C16.9109 1 21.5 5.58908 21.5 11.25C21.5 11.9119 21.4343 12.5586 21.3145 13.1855L19.6729 13.5566V13.5576C18.5383 13.8144 18.1726 15.1515 18.835 15.959L18.2275 17.0107L15.8916 15.6631C15.8259 15.6252 15.7563 15.5898 15.6846 15.5576C15.2649 15.3694 14.8105 15.3172 14.3799 15.3896C14.2343 15.4142 14.094 15.4532 13.9609 15.5029C13.755 15.5798 13.5615 15.6864 13.3867 15.8184C13.1646 15.9861 12.9733 16.1958 12.8232 16.4395C12.8207 16.4434 12.8171 16.4484 12.8135 16.4541C12.8074 16.4638 12.7991 16.4776 12.79 16.4932L10.3047 20.7939C10.1875 20.9969 10.1049 21.2105 10.0557 21.4277C4.95763 20.8359 1 16.5068 1 11.25C1 5.58908 5.58908 1 11.25 1Z" fill="url(#paint1_linear_21655_30995)"/>
<path d="M11.25 1C16.9109 1 21.5 5.58908 21.5 11.25C21.5 11.9119 21.4343 12.5586 21.3145 13.1855L20.7803 13.3066C20.9227 12.6435 21 11.9557 21 11.25C21 5.86522 16.6348 1.5 11.25 1.5C5.86522 1.5 1.5 5.86522 1.5 11.25C1.5 16.2891 5.32289 20.4337 10.2266 20.9453C10.1507 21.1023 10.0929 21.2636 10.0557 21.4277C4.95763 20.8359 1 16.5068 1 11.25C1 5.58908 5.58908 1 11.25 1Z" fill="url(#paint2_linear_21655_30995)"/>
<path d="M12.0493 5C12.2293 5 12.3755 5.14621 12.3755 5.32617V6.43457C13.7258 6.71608 14.7077 7.66099 14.7544 8.94238C14.7609 9.13265 14.6079 9.29073 14.4175 9.29102H13.3765C13.2055 9.2907 13.0618 9.16203 13.0425 8.99219C12.9751 8.3956 12.4265 7.96601 11.4839 7.96582C10.9719 7.9659 10.5774 8.10068 10.3208 8.2959C10.0706 8.48679 9.93896 8.74292 9.93896 9.03809C9.93931 9.335 10.0961 9.5509 10.3696 9.72852C10.5819 9.86616 10.8425 9.96509 11.0942 10.04L11.3423 10.1074L11.3491 10.1094L12.1929 10.3438L12.1948 10.3447C12.6655 10.4655 13.3248 10.6703 13.8696 11.0723C14.4287 11.4851 14.8725 12.1112 14.8726 13.0361C14.8724 13.8299 14.55 14.5472 13.9429 15.0596C13.5329 15.4052 13.0028 15.6446 12.3755 15.7656V16.7891C12.3754 16.9689 12.2292 17.1152 12.0493 17.1152H11.019C10.8391 17.1152 10.693 16.9689 10.6929 16.7891V15.8047C10.0309 15.7085 9.46158 15.4795 9.01611 15.1289C8.40918 14.6507 8.054 13.9658 8.00049 13.165C7.98784 12.9712 8.14227 12.8072 8.33643 12.8066H9.42529C9.59817 12.807 9.74312 12.9382 9.76025 13.1104C9.79687 13.4782 9.9799 13.7417 10.2612 13.9229C10.5529 14.1103 10.9608 14.2138 11.4243 14.2139C11.9621 14.2138 12.4072 14.0769 12.7065 13.8604C12.9984 13.6489 13.1585 13.3601 13.1587 13.0127C13.1587 12.7328 13.0356 12.5399 12.7944 12.3721C12.5342 12.1912 12.1589 12.0579 11.7095 11.9277L10.6626 11.6455L10.6567 11.6445C9.95533 11.4414 9.35189 11.1508 8.92139 10.7324C8.48112 10.3041 8.23695 9.75524 8.23682 9.08496C8.23682 7.66033 9.30597 6.70032 10.6929 6.42773V5.32617C10.6929 5.14621 10.8391 5 11.019 5H12.0493ZM11.4321 14.5498L11.4253 14.5508L11.6431 14.5439V14.543C11.5742 14.5475 11.5033 14.5496 11.4321 14.5498ZM14.4927 13.4814C14.4934 13.4778 14.494 13.4734 14.4946 13.4697C14.505 13.4118 14.5168 13.3533 14.5229 13.2939V13.293C14.5162 13.3566 14.5042 13.4195 14.4927 13.4814ZM10.7505 11.3213L11.6548 11.5645L10.7505 11.3203C10.6663 11.2959 10.5835 11.2709 10.5034 11.2441C10.5835 11.2709 10.6663 11.2969 10.7505 11.3213Z" fill="white"/>
<defs>
<linearGradient id="paint0_linear_21655_30995" x1="19" y1="12.4992" x2="15.9998" y2="22.4994" gradientUnits="userSpaceOnUse">
<stop stop-color="#C0C3C6"/>
<stop offset="1" stop-color="#7B7B7B"/>
</linearGradient>
<linearGradient id="paint1_linear_21655_30995" x1="14.0857" y1="1.07295" x2="9.6878" y2="21.9202" gradientUnits="userSpaceOnUse">
<stop stop-color="#FFE173"/>
<stop offset="1" stop-color="#FFB300"/>
</linearGradient>
<linearGradient id="paint2_linear_21655_30995" x1="11.25" y1="1" x2="11.25" y2="21.4277" gradientUnits="userSpaceOnUse">
<stop stop-color="#FDD963"/>
<stop offset="1" stop-color="#A1740A"/>
</linearGradient>
</defs>
</svg>
