<svg width="20" height="20" viewBox="0 0 20 20" fill="none" xmlns="http://www.w3.org/2000/svg">
<path d="M7.5 9.58333C7.5 9.35321 7.68655 9.16667 7.91667 9.16667H12.0833C12.3135 9.16667 12.5 9.35321 12.5 9.58333V10.0833C12.5 10.3135 12.3135 10.5 12.0833 10.5H7.91667C7.68655 10.5 7.5 10.3135 7.5 10.0833V9.58333Z" fill="#333333"/>
<path fill-rule="evenodd" clip-rule="evenodd" d="M2.66663 5.41683C2.66663 4.12816 3.71129 3.0835 4.99996 3.0835H15C16.2886 3.0835 17.3333 4.12817 17.3333 5.41683V14.5835C17.3333 15.8722 16.2886 16.9168 15 16.9168H4.99996C3.71129 16.9168 2.66663 15.8722 2.66663 14.5835V5.41683ZM4.99996 4.41683C4.44767 4.41683 3.99996 4.86454 3.99996 5.41683V14.5835C3.99996 15.1358 4.44767 15.5835 4.99996 15.5835H15C15.5522 15.5835 16 15.1358 16 14.5835V5.41683C16 4.86454 15.5522 4.41683 15 4.41683H11.25V6.41683C11.25 6.64695 11.0635 6.8335 10.8333 6.8335H9.16667C8.93655 6.8335 8.75 6.64695 8.75 6.41683V4.41683H4.99996Z" fill="#333333"/>
</svg>
