<svg width="20" height="20" viewBox="0 0 20 20" fill="none" xmlns="http://www.w3.org/2000/svg">
<path d="M9.99961 5.07115C9.99961 4.75556 10.2554 4.49972 10.571 4.49972H18.4282C18.7438 4.49972 18.9996 4.75556 18.9996 5.07115V5.31664C18.9996 5.63223 18.7438 5.88807 18.4282 5.88807H10.571C10.2554 5.88807 9.99961 5.63223 9.99961 5.31664V5.07115Z" fill="#555555"/>
<path d="M9.99961 8.27503C9.99961 7.95944 10.2554 7.7036 10.571 7.7036H16.8156C17.1312 7.7036 17.3871 7.95944 17.3871 8.27503V8.52053C17.3871 8.83612 17.1312 9.09195 16.8156 9.09195H10.571C10.2554 9.09195 9.99961 8.83612 9.99961 8.52053V8.27503Z" fill="#555555"/>
<path d="M9.99961 11.4789C9.99961 11.1633 10.2554 10.9075 10.571 10.9075H14.8156C15.1312 10.9075 15.3871 11.1633 15.3871 11.4789V11.7244C15.3871 12.04 15.1312 12.2958 14.8156 12.2958H10.571C10.2554 12.2958 9.99961 12.04 9.99961 11.7244V11.4789Z" fill="#555555"/>
<path d="M9.99961 14.6828C9.99961 14.3672 10.2554 14.1114 10.571 14.1114L13.9282 14.1114C14.2438 14.1114 14.4996 14.3672 14.4996 14.6828V14.9283C14.4996 15.2439 14.2438 15.4997 13.9282 15.4997L10.571 15.4997C10.2554 15.4997 9.99961 15.2439 9.99961 14.9283V14.6828Z" fill="#555555"/>
<path d="M5.25673 13.877L6.54575 12.5775C6.76799 12.3535 7.12976 12.352 7.35382 12.5742L7.60789 12.8262C7.83195 13.0484 7.83348 13.4102 7.6113 13.6342L4.91252 16.3563C4.68897 16.5818 4.32448 16.5818 4.10093 16.3563L1.40196 13.6341C1.17986 13.41 1.18131 13.0484 1.40519 12.8262L1.65866 12.5746C1.88269 12.3522 2.2446 12.3536 2.46691 12.5777L3.75673 13.8779V3.77162C3.75673 3.45603 4.01256 3.2002 4.32815 3.2002H4.6853C5.00089 3.2002 5.25673 3.45603 5.25673 3.77162V13.877Z" fill="#555555"/>
</svg>
