<svg width="14" height="14" viewBox="0 0 14 14" fill="none" xmlns="http://www.w3.org/2000/svg">
<path fill-rule="evenodd" clip-rule="evenodd" d="M7 1C3.68629 1 1 3.68629 1 7C1 10.3137 3.68629 13 7 13C10.3137 13 13 10.3137 13 7C13 3.68629 10.3137 1 7 1ZM10.107 5.14994C9.91368 4.95277 9.59711 4.94966 9.39994 5.14299L6.201 8.278L4.62051 6.53387L4.55419 6.47268C4.36619 6.32827 4.09614 6.33429 3.91426 6.49911C3.70963 6.68454 3.69407 7.00074 3.8795 7.20537L5.81003 9.33575L5.87827 9.39842C6.07183 9.54566 6.35044 9.53366 6.5306 9.35701L10.1001 5.85701L10.1586 5.78833C10.2955 5.5948 10.2789 5.3252 10.107 5.14994Z" fill="#9A9A9A"/>
</svg>
