<svg width="14" height="14" viewBox="0 0 14 14" fill="none" xmlns="http://www.w3.org/2000/svg">
<path d="M7 0.5C10.5899 0.5 13.5 3.41015 13.5 7C13.5 10.5899 10.5899 13.5 7 13.5C3.41015 13.5 0.5 10.5899 0.5 7C0.5 3.41015 3.41015 0.5 7 0.5ZM7 1.5C3.96243 1.5 1.5 3.96243 1.5 7C1.5 10.0376 3.96243 12.5 7 12.5C10.0376 12.5 12.5 10.0376 12.5 7C12.5 3.96243 10.0376 1.5 7 1.5ZM7 8.59082C7.5004 8.59082 7.90625 9.01872 7.90625 9.5459C7.90602 10.0729 7.50026 10.5 7 10.5C6.49974 10.5 6.09398 10.0729 6.09375 9.5459C6.09375 9.01872 6.4996 8.59082 7 8.59082ZM7 3.5C7.62701 3.5 8.09956 4.10112 7.98242 4.75L7.4082 7.92383C7.40503 7.94141 7.39003 7.9541 7.37305 7.9541H6.62695C6.60997 7.9541 6.59497 7.94141 6.5918 7.92383L6.01758 4.75C5.90044 4.10112 6.37299 3.5 7 3.5Z" fill="#9A9A9A"/>
</svg>
