<svg width="14" height="14" viewBox="0 0 14 14" fill="none" xmlns="http://www.w3.org/2000/svg">
<rect x="0.5" y="0.5" width="13" height="13" rx="6.5" stroke="#555555"/>
<path d="M6.17865 3.89291C6.17865 3.44483 6.54375 3.07144 6.9947 3.07144C7.44572 3.07144 7.82151 3.44483 7.82151 3.89291C7.82151 4.33033 7.45641 4.71437 6.9947 4.71437C6.533 4.71437 6.17865 4.3303 6.17865 3.89291Z" fill="#555555"/>
<path d="M7.53572 6.10716C7.53572 5.81129 7.29588 5.57144 7.00001 5.57144H5.92858C5.63271 5.57144 5.39287 5.81129 5.39287 6.10716C5.39287 6.40302 5.63271 6.64287 5.92858 6.64287H6.46429V10.2143H5.75001C5.45414 10.2143 5.21429 10.4541 5.21429 10.75C5.21429 11.0459 5.45414 11.2857 5.75001 11.2857H8.25001C8.54588 11.2857 8.78572 11.0459 8.78572 10.75C8.78572 10.4541 8.54588 10.2143 8.25001 10.2143H7.53572V6.10716Z" fill="#555555"/>
</svg>
