<svg width="14" height="14" viewBox="0 0 14 14" fill="none" xmlns="http://www.w3.org/2000/svg">
<rect x="0.5" y="0.5" width="13" height="13" rx="6.5" stroke="#BBBBBB"/>
<path d="M6.11272 8.62881C6.12402 7.15596 6.53093 6.70544 7.24302 6.26069C7.72339 5.94302 8.09639 5.55603 8.09074 4.97845C8.09639 4.33155 7.59906 3.91568 6.98305 3.91568C6.42355 3.91568 5.88101 4.28534 5.84145 5.05931H4.42857C4.46813 3.50559 5.59843 2.71429 6.99435 2.71429C8.52025 2.71429 9.56578 3.58068 9.57143 4.95534C9.56578 5.89681 9.10801 6.50906 8.37331 6.9538C7.71774 7.36389 7.44647 7.76243 7.43517 8.62881V8.73278H6.11272V8.62881ZM5.93187 10.3847C5.92622 9.89951 6.32747 9.50097 6.8135 9.4952C7.28258 9.50097 7.68383 9.89951 7.68383 10.3847C7.68383 10.8814 7.28258 11.2857 6.8135 11.2857C6.32747 11.2857 5.92622 10.8814 5.93187 10.3847Z" fill="#9A9A9A"/>
</svg>
