<svg width="40" height="40" viewBox="0 0 40 40" fill="none" xmlns="http://www.w3.org/2000/svg">
<path fill-rule="evenodd" clip-rule="evenodd" d="M20 32C26.6274 32 32 26.6274 32 20C32 13.3726 26.6274 8 20 8C13.3726 8 8 13.3726 8 20C8 26.6274 13.3726 32 20 32ZM20 30.7C25.9094 30.7 30.7 25.9094 30.7 20C30.7 14.0906 25.9094 9.3 20 9.3C14.0906 9.3 9.3 14.0906 9.3 20C9.3 25.9094 14.0906 30.7 20 30.7Z" fill="#333333"/>
<path d="M20.0989 13.9502C20.7731 13.9502 21.3618 14.0839 21.8635 14.3535C22.3681 14.6227 22.7582 14.9927 23.0325 15.4629H23.0334C23.3117 15.9335 23.4495 16.4694 23.4495 17.0684C23.4494 17.4901 23.3847 17.8732 23.2532 18.2168C23.1258 18.5595 22.9396 18.8651 22.6965 19.1348C22.5174 19.3366 22.3112 19.5217 22.0764 19.6885L21.8323 19.8496C21.5842 20.0044 21.3741 20.1649 21.2014 20.3311L21.0413 20.499C20.8455 20.7202 20.7027 20.9843 20.6135 21.292C20.5241 21.6007 20.4746 21.9882 20.467 22.4551V22.5723H19.0012V22.4541L19.0198 21.9365C19.0513 21.4463 19.1218 21.0372 19.2317 20.7109C19.3778 20.2772 19.5866 19.9239 19.8586 19.6523C20.1274 19.3841 20.449 19.1373 20.8235 18.9121L20.9846 18.8066C21.0892 18.7335 21.1882 18.6545 21.2815 18.5693L21.4172 18.4365C21.5911 18.2518 21.7283 18.0393 21.8284 17.7988L21.8967 17.6143C21.955 17.4247 21.9836 17.22 21.9836 17C21.9836 16.637 21.8983 16.325 21.7297 16.0615C21.5601 15.7964 21.3334 15.592 21.0491 15.4482C20.7646 15.3044 20.4483 15.2315 20.0989 15.2314C19.7949 15.2314 19.502 15.295 19.22 15.4209C18.9405 15.5457 18.7065 15.7422 18.5178 16.0117C18.331 16.2787 18.2206 16.6306 18.1907 17.0713L18.1877 17.1182H16.6536L16.6565 17.0654C16.6873 16.4142 16.856 15.8537 17.1653 15.3867C17.4776 14.921 17.8889 14.5646 18.3977 14.3184C18.9098 14.0724 19.4774 13.9502 20.0989 13.9502Z" fill="#333333" stroke="#333333" stroke-width="0.1"/>
<ellipse cx="17.4164" cy="17.1705" rx="0.816424" ry="0.815" fill="#333333"/>
<ellipse cx="19.7355" cy="22.5754" rx="0.781363" ry="0.78" fill="#333333"/>
<circle cx="19.8" cy="25.3999" r="1" fill="#333333"/>
</svg>
