<svg width="24" height="24" viewBox="0 0 24 24" fill="none" xmlns="http://www.w3.org/2000/svg">
<path d="M10.1465 2.68262C11.9893 2.31606 13.8998 2.50362 15.6357 3.22266C17.3716 3.94168 18.8556 5.15946 19.8994 6.72168C20.9433 8.28395 21.5 10.1211 21.5 12H19.8848C19.8848 10.4405 19.4221 8.91582 18.5557 7.61914C17.6893 6.32263 16.4582 5.31159 15.0176 4.71484C13.5768 4.11808 11.9914 3.96241 10.4619 4.2666C8.93237 4.57085 7.52754 5.32207 6.4248 6.4248L6.22168 6.63477C5.22949 7.70333 4.55182 9.02802 4.2666 10.4619C3.96241 11.9914 4.11808 13.5768 4.71484 15.0176C5.31159 16.4582 6.32263 17.6893 7.61914 18.5557C8.91582 19.4221 10.4405 19.8848 12 19.8848V21.5C10.1211 21.5 8.28395 20.9433 6.72168 19.8994C5.15946 18.8556 3.94168 17.3716 3.22266 15.6357C2.50362 13.8998 2.31606 11.9893 2.68262 10.1465C3.0492 8.30373 3.95367 6.61079 5.28223 5.28223C6.61079 3.95367 8.30373 3.0492 10.1465 2.68262ZM20.6309 13.6357C20.8098 13.566 21.008 13.6803 21.0371 13.8701L21.3701 16.0439C21.4082 16.2927 21.1408 16.4754 20.9229 16.3496L20.3691 16.0293L18.8477 18.666C18.5853 19.1202 18.0041 19.2759 17.5498 19.0137L15.7744 17.9883L14.3496 20.457C14.2391 20.6482 13.994 20.7139 13.8027 20.6035L13.1973 20.2529C13.006 20.1425 12.9404 19.8983 13.0508 19.707L14.751 16.7627C15.0133 16.3084 15.5945 16.1527 16.0488 16.415L17.8232 17.4395L19.0703 15.2793L18.541 14.9736C18.3235 14.8477 18.3479 14.526 18.582 14.4346L20.6309 13.6357ZM12.168 6.9375C12.3889 6.9375 12.5684 7.11698 12.5684 7.33789V8.47559C12.7808 8.4952 12.9867 8.52936 13.1855 8.58105L13.1846 8.58203C13.3894 8.63425 13.599 8.69959 13.8125 8.7793C14.112 8.89123 14.2409 9.22883 14.123 9.5127L13.9756 9.86719C13.8549 10.1577 13.5264 10.2889 13.2393 10.1855C13.0865 10.1304 12.9441 10.084 12.8125 10.0469C12.5886 9.98371 12.358 9.95217 12.1221 9.95215C11.9681 9.95217 11.8456 9.97751 11.75 10.0205C11.6519 10.0647 11.5829 10.123 11.5352 10.1924C11.4956 10.2584 11.4727 10.3411 11.4727 10.4463C11.4727 10.5609 11.5055 10.6524 11.5684 10.7295L11.6318 10.793C11.7045 10.8579 11.8039 10.9264 11.9346 10.9961C12.1156 11.0927 12.3434 11.2079 12.6172 11.3418L12.8662 11.4648C13.1049 11.5895 13.3157 11.7194 13.498 11.8535C13.7552 12.0382 13.9575 12.2595 14.0996 12.5166C14.2455 12.7806 14.3144 13.0984 14.3145 13.4619C14.3145 13.877 14.2112 14.2475 14.001 14.5664C13.7906 14.8853 13.4875 15.1293 13.1006 15.2998H13.0996C12.9366 15.3701 12.7591 15.4232 12.5684 15.4629V16.6631C12.5681 16.8838 12.3888 17.0625 12.168 17.0625H11.7021C11.4816 17.0622 11.3029 16.8837 11.3027 16.6631V15.5244C11.2121 15.5168 11.1219 15.5085 11.0322 15.4961H11.0312C10.8102 15.4645 10.5948 15.4203 10.3857 15.3633L10.3799 15.3613C10.2621 15.3245 10.1469 15.2837 10.0352 15.2383C9.82382 15.1523 9.7002 14.9444 9.7002 14.7285V14.291C9.70032 13.8799 10.1192 13.6115 10.4932 13.7549C10.623 13.8047 10.7548 13.8526 10.8877 13.8994L11.127 13.9688C11.3662 14.0278 11.6029 14.0566 11.8369 14.0566C12.0508 14.0566 12.2052 14.0278 12.3096 13.9805L12.3125 13.9785C12.4295 13.9276 12.4993 13.8658 12.5381 13.7998L12.541 13.7939L12.6826 13.8848L12.542 13.7939C12.5902 13.7194 12.6152 13.6316 12.6152 13.5264C12.6152 13.4055 12.5748 13.3072 12.4902 13.2227L12.4873 13.2197C12.3936 13.1208 12.2603 13.0237 12.082 12.9316L12.0781 12.9297C11.8916 12.8274 11.6765 12.7189 11.4336 12.6035L11.4326 12.6025C11.2762 12.5274 11.1076 12.44 10.9277 12.3408L10.9238 12.3389C10.736 12.2288 10.5558 12.0961 10.3828 11.9424L10.377 11.9375V11.9365C10.2026 11.7686 10.0593 11.5685 9.94727 11.3379C9.82946 11.0953 9.77445 10.8115 9.77441 10.4922C9.77442 10.074 9.869 9.70644 10.0674 9.39844L10.0684 9.39746C10.2714 9.08621 10.5548 8.85069 10.9131 8.69141H10.9141C11.0371 8.63773 11.1668 8.59375 11.3027 8.55859V7.33789C11.3027 7.11713 11.4814 6.93775 11.7021 6.9375H12.168ZM11.6143 10.9951C11.6251 11.003 11.6371 11.0097 11.6484 11.0176C11.6008 10.9846 11.5572 10.9526 11.5195 10.9189L11.6143 10.9951ZM9.97168 10.8613C9.97351 10.8719 9.97652 10.8822 9.97852 10.8926C9.9672 10.8336 9.95807 10.7724 9.95215 10.709L9.97168 10.8613ZM10.4463 9.2002C10.4165 9.22905 10.3879 9.25909 10.3604 9.29004L10.3613 9.29102C10.3937 9.25456 10.4274 9.21925 10.4629 9.18555C10.4575 9.1906 10.4516 9.19507 10.4463 9.2002ZM12.6689 8.65527C12.7502 8.66523 12.8303 8.67745 12.9092 8.69238L12.6689 8.6543C12.5878 8.64438 12.5053 8.63776 12.4219 8.63281L12.6689 8.65527Z" fill="#333333"/>
</svg>
