<svg preserveAspectRatio="none" width="100%" height="100%" overflow="visible" style="display: block;" viewBox="0 0 24 24" fill="none" xmlns="http://www.w3.org/2000/svg">
  <path d="M12 2C6.47715 2 2 6.47715 2 12C2 17.5228 6.47715 22 12 22C16.7107 22 20.6589 18.7435 21.7198 14.3599C21.9031 13.6025 22 12.812 22 12H20.4894C20.4894 12.6914 20.4069 13.3626 20.2516 14.0046C19.351 17.7261 15.9973 20.4894 12 20.4894C7.31142 20.4894 3.51057 16.6886 3.51057 12C3.51057 7.31142 7.31142 3.51057 12 3.51057C15.1829 3.51057 17.9578 5.2619 19.4117 7.85692H16.3136V9.36749H21.9994V3.68169H20.4888V6.71181C18.7235 3.88381 15.5822 2 12 2Z" fill="#FF7979"/>
</svg>
