<svg xmlns="http://www.w3.org/2000/svg" width="40" height="40" fill="none" viewBox="0 0 40 40"><path fill="#f1f4f6" d="M0 0h40v40H0z"/><path fill="#9a9a9a" d="M19.093 18.775a7 7 0 0 0 .907.058v.8h-.1a8 8 0 0 1-.91-.066zm1.917.792q-.496.065-1.01.066v-.8q.462 0 .907-.058zm-4.477-1.661c.519.3 1.08.535 1.671.693l-.206.772a7.7 7.7 0 0 1-1.865-.773zm7.334.692a7.7 7.7 0 0 1-1.865.773l-.206-.772a7 7 0 0 0 1.67-.693zm-9.368-2.478c.369.48.8.912 1.28 1.281l-.487.634a7.8 7.8 0 0 1-1.427-1.428zm11.636.487a7.8 7.8 0 0 1-1.428 1.428l-.487-.634c.481-.37.912-.8 1.281-1.28zm-12.834-2.911c.158.591.393 1.152.693 1.67l-.692.401a7.7 7.7 0 0 1-.773-1.865zm14.17.206a7.7 7.7 0 0 1-.773 1.865l-.692-.4c.3-.519.535-1.08.693-1.672zM12.267 11.9q0-.514.065-1.01l.793.103a7 7 0 0 0 0 1.813l-.793.104a8 8 0 0 1-.065-.91zm15.466.1a8 8 0 0 1-.066.91l-.792-.104a7 7 0 0 0 0-1.813l.793-.103q.065.496.065 1.01zM13.994 8.433c-.3.519-.535 1.08-.693 1.671l-.772-.206c.176-.661.438-1.287.773-1.865zm12.704-.4c.335.578.596 1.204.773 1.865l-.772.206a7 7 0 0 0-.693-1.67zM15.78 6.399c-.481.369-.912.8-1.281 1.28l-.634-.487a7.8 7.8 0 0 1 1.427-1.428zm8.927-.635a7.8 7.8 0 0 1 1.428 1.428l-.634.487c-.37-.48-.8-.911-1.28-1.28zm-6.503-.563a7 7 0 0 0-1.67.693l-.401-.692a7.7 7.7 0 0 1 1.865-.773zm3.798-.772c.66.176 1.287.438 1.865.773l-.4.692a7 7 0 0 0-1.671-.693zM20.1 4.167a8 8 0 0 1 .91.065l-.103.793a7 7 0 0 0-1.814 0l-.103-.793q.496-.065 1.01-.066zM4.233 39.4v.6h-.8v-.6zm32.334 0v.6h-.8v-.6zM4.233 37v1.2h-.8V37zm32.334 0v1.2h-.8V37zM3.433 35.2q0-.369.02-.733l.8.045q-.02.341-.02.688v.6h-.8zm32.334 0q0-.346-.02-.688l.8-.045q.02.364.02.733v.6h-.8zM4.71 31.803q-.19.657-.305 1.34l-.789-.132q.123-.73.325-1.43zm31.35-.222q.2.7.324 1.43l-.789.133q-.116-.685-.305-1.341zM5.761 29.266q-.333.6-.598 1.239l-.739-.307q.282-.68.637-1.32zm29.176-.388q.355.64.637 1.32l-.739.307a12 12 0 0 0-.598-1.24zM7.353 27.026q-.458.513-.858 1.075l-.652-.463q.426-.599.914-1.145zm25.89-.533q.49.546.914 1.145l-.651.463a12 12 0 0 0-.86-1.075zM9.401 25.195q-.562.4-1.075.858l-.533-.596q.546-.488 1.145-.914zm21.661-.652q.599.425 1.145.914l-.533.596q-.513-.458-1.075-.858zm-19.257-.68a12 12 0 0 0-1.24.599l-.387-.7q.64-.355 1.32-.637zm16.697-.738q.68.282 1.32.637l-.388.7q-.6-.334-1.238-.598zm-14.058-.02a12 12 0 0 0-1.341.305l-.221-.769q.7-.202 1.429-.325zm11.245-.789q.73.123 1.43.325l-.221.769a12 12 0 0 0-1.342-.305zm-8.314-.183v.8H16.5q-.346 0-.688.02l-.045-.8q.364-.02.733-.02zm6.125 0q.369 0 .733.02l-.044.8a13 13 0 0 0-.689-.02h-.875v-.8zm-2.625 0v.8h-1.75v-.8z"/></svg>