<svg width="14" height="14" viewBox="0 0 14 14" fill="none" xmlns="http://www.w3.org/2000/svg">
<path fill-rule="evenodd" clip-rule="evenodd" d="M2.5 1C1.39543 1 0.5 1.89543 0.5 3V11C0.5 12.1046 1.39543 13 2.5 13H11.5C12.6046 13 13.5 12.1046 13.5 11V3C13.5 1.89543 12.6046 1 11.5 1H2.5ZM3.50031 6C4.32873 6 5.00031 5.32843 5.00031 4.5C5.00031 3.67157 4.32873 3 3.50031 3C2.67188 3 2.00031 3.67157 2.00031 4.5C2.00031 5.32843 2.67188 6 3.50031 6ZM4.87844 8.11144C4.67626 7.94973 4.38407 7.9691 4.20501 8.1561L1.83322 10.6329C1.52909 10.9505 1.75353 11.4778 2.19326 11.4787L11.4984 11.4989C11.775 11.4995 11.9995 11.2755 11.9995 10.9989V7.99999L9.92001 5.20508C9.72579 4.94404 9.33794 4.9351 9.1319 5.18691L6.00298 9.01087L4.87844 8.11144Z" fill="#EAEAEA"/>
</svg>
