<svg width="40" height="40" viewBox="0 0 40 40" fill="none" xmlns="http://www.w3.org/2000/svg">
<path d="M18.8701 22.0903C18.6601 22.0903 18.5201 22.0203 18.3801 21.8803C17.5401 21.0403 17.0501 19.9203 17.0501 18.7303C17.0501 17.5403 17.5401 16.4203 18.3801 15.5803L22.3701 11.5903C23.2101 10.7503 24.3301 10.2603 25.5201 10.2603C26.7101 10.2603 27.8301 10.7503 28.6701 11.5903C30.4201 13.3403 30.4201 16.1403 28.6701 17.8903L26.8501 19.7103C26.5701 19.9903 26.1501 19.9903 25.8701 19.7103C25.5901 19.4303 25.5901 19.0103 25.8701 18.7303L27.6901 16.9103C28.8801 15.7203 28.8801 13.7603 27.6901 12.5703C27.1301 12.0103 26.3601 11.6603 25.5201 11.6603C24.6801 11.6603 23.9101 12.0103 23.3501 12.5703L19.3601 16.5603C18.8001 17.1203 18.4501 17.8903 18.4501 18.7303C18.4501 19.5703 18.8001 20.3403 19.3601 20.9003C19.6401 21.1803 19.6401 21.6003 19.3601 21.8803C19.2201 22.0203 19.0801 22.0903 18.8701 22.0903Z" fill="#333333"/>
<path d="M18.3499 18.73C18.35 17.8619 18.712 17.0672 19.2894 16.4897L23.2796 12.4995C23.857 11.9221 24.6518 11.5601 25.5198 11.5601C26.3881 11.5601 27.1836 11.922 27.7611 12.4995C28.99 13.7285 28.99 15.7519 27.7611 16.981L25.9407 18.8013C25.7001 19.0421 25.7001 19.3983 25.9407 19.6392C26.1817 19.8801 26.5387 19.8801 26.7796 19.6392L28.599 17.8198C30.3099 16.1089 30.3099 13.3716 28.599 11.6606C27.7767 10.8386 26.6817 10.3599 25.5198 10.3599C24.358 10.3599 23.263 10.8385 22.4407 11.6606L18.4505 15.6509C17.6283 16.4731 17.1498 17.5681 17.1497 18.73C17.1497 19.8918 17.6285 20.9868 18.4505 21.8091C18.5146 21.8732 18.5755 21.9181 18.64 21.9468C18.7038 21.9751 18.7774 21.9907 18.8704 21.9907C18.9636 21.9907 19.037 21.9752 19.1009 21.9468C19.1653 21.9181 19.2253 21.8732 19.2894 21.8091C19.5301 21.5682 19.5302 21.2121 19.2894 20.9712C18.7119 20.3937 18.3499 19.5982 18.3499 18.73ZM18.5501 18.73C18.5501 19.5417 18.8885 20.2871 19.431 20.8296C19.7499 21.1486 19.7498 21.6317 19.431 21.9507C19.3551 22.0266 19.275 22.088 19.182 22.1294C19.0886 22.1709 18.9869 22.1899 18.8704 22.1899C18.7538 22.1899 18.6514 22.171 18.5579 22.1294C18.465 22.0881 18.3857 22.0265 18.3099 21.9507C17.4522 21.093 16.9505 19.948 16.9505 18.73C16.9506 17.5121 17.4523 16.3669 18.3099 15.5093L22.2991 11.52C23.1568 10.6624 24.302 10.1607 25.5198 10.1606C26.7378 10.1606 27.8829 10.6623 28.7406 11.52C30.5295 13.3091 30.5296 16.1724 28.7406 17.9614L26.9212 19.7808C26.6022 20.0998 26.1182 20.0998 25.7991 19.7808C25.4804 19.4618 25.4804 18.9786 25.7991 18.6597L27.6195 16.8394C28.7703 15.6884 28.7703 13.792 27.6195 12.6411C27.077 12.0986 26.3316 11.7603 25.5198 11.7603C24.7083 11.7603 23.9637 12.0987 23.4212 12.6411L19.431 16.6313C18.8886 17.1738 18.5502 17.9184 18.5501 18.73Z" fill="#333333"/>
<path d="M14.8803 29.8597C13.7603 29.8597 12.5703 29.4397 11.7303 28.5297C10.8903 27.6897 10.4003 26.5697 10.4003 25.3798C10.4003 24.1898 10.8903 23.0698 11.7303 22.2298L13.5503 20.4097C13.8303 20.1298 14.2503 20.1298 14.5303 20.4097C14.8103 20.6897 14.8103 21.1098 14.5303 21.3898L12.7103 23.2098C12.1503 23.7698 11.8003 24.5398 11.8003 25.3798C11.8003 26.2197 12.1503 26.9897 12.7103 27.5497C13.9003 28.7397 15.8603 28.7397 17.0503 27.5497L21.0403 23.5597C21.6003 22.9998 21.9503 22.2298 21.9503 21.3898C21.9503 20.5498 21.6003 19.7798 21.0403 19.2198C20.7603 18.9398 20.7603 18.5198 21.0403 18.2398C21.3203 17.9598 21.7403 17.9598 22.0203 18.2398C22.8603 19.0798 23.3503 20.1998 23.3503 21.3898C23.3503 22.5798 22.8603 23.6998 22.0203 24.5398L18.0303 28.5297C17.1903 29.3697 16.0003 29.8597 14.8803 29.8597Z" fill="#333333"/>
<path d="M23.2499 21.3901C23.2499 20.2281 22.7714 19.1323 21.9491 18.31C21.7083 18.0696 21.352 18.0696 21.1112 18.31C20.8703 18.551 20.8703 18.9079 21.1112 19.1489C21.6887 19.7264 22.0507 20.5219 22.0507 21.3901C22.0506 22.2581 21.6885 23.0529 21.1112 23.6303L17.121 27.6206C15.8919 28.8496 13.8686 28.8496 12.6395 27.6206C12.062 27.0431 11.7001 26.2476 11.7001 25.3794C11.7002 24.5113 12.0622 23.7165 12.6395 23.1391L14.4598 21.3188C14.7004 21.078 14.7003 20.7218 14.4598 20.4809C14.2189 20.24 13.8619 20.24 13.621 20.4809L11.8007 22.3003C10.9785 23.1225 10.5 24.2175 10.4999 25.3794C10.4999 26.4687 10.9212 27.4991 11.6512 28.3012L11.8007 28.4594L11.8036 28.4614C12.6218 29.3477 13.7843 29.7602 14.8807 29.7602C15.9734 29.7601 17.1383 29.281 17.9598 28.4594L21.9491 24.4692C22.7713 23.647 23.2498 22.552 23.2499 21.3901ZM23.4501 21.3901C23.45 22.6079 22.9483 23.7532 22.0907 24.6108L18.1014 28.6001C17.2433 29.4583 16.0278 29.9593 14.8807 29.9594C13.7373 29.9594 12.5188 29.5307 11.6571 28.5971C10.8015 27.7398 10.3007 26.5957 10.3007 25.3794C10.3008 24.1615 10.8024 23.0163 11.66 22.1587L13.4794 20.3393C13.7984 20.0203 14.2824 20.0203 14.6014 20.3393C14.92 20.6583 14.9201 21.1415 14.6014 21.4604L12.7811 23.2807C12.2387 23.8231 11.9004 24.5678 11.9003 25.3794C11.9003 26.1911 12.2386 26.9365 12.7811 27.479C13.9321 28.6299 15.8284 28.6298 16.9794 27.479L20.9696 23.4887C21.5119 22.9463 21.8504 22.2016 21.8505 21.3901C21.8505 20.5784 21.5121 19.833 20.9696 19.2905C20.6506 18.9715 20.6507 18.4885 20.9696 18.1694C21.2887 17.8503 21.7716 17.8503 22.0907 18.1694C22.9484 19.0271 23.4501 20.1721 23.4501 21.3901Z" fill="#333333"/>
</svg>
