<svg width="24" height="24" viewBox="0 0 24 24" fill="none" xmlns="http://www.w3.org/2000/svg">
<path fill-rule="evenodd" clip-rule="evenodd" d="M3.26305 9.98916C3.17319 9.53239 3.70148 9.21148 4.06542 9.50176L8.15954 12.7672C8.40691 12.9645 8.77305 12.8853 8.91677 12.6034L11.6028 7.33478C11.7886 6.97042 12.3094 6.97104 12.4943 7.33584L15.161 12.5976C15.3049 12.8815 15.6739 12.9605 15.9214 12.7603L19.9289 9.51844C20.2922 9.22456 20.8242 9.54526 20.734 10.0037L18.9501 20.0672C18.8967 20.5974 18.4674 21.0001 17.9556 21.0001H6.04336C5.53147 21.0001 5.10223 20.5974 5.04882 20.0671L3.26305 9.98916Z" fill="#FFD51E"/>
<path d="M13.5 4.56249C13.5 5.42544 12.8284 6.12499 12 6.12499C11.1716 6.12499 10.5 5.42544 10.5 4.56249C10.5 3.69955 11.1716 3 12 3C12.8284 3 13.5 3.69955 13.5 4.56249Z" fill="#FFD51E"/>
<path d="M4 7.1666C4 8.02955 3.32843 8.7291 2.5 8.7291C1.67157 8.7291 1 8.02955 1 7.1666C1 6.30366 1.67157 5.60411 2.5 5.60411C3.32843 5.60411 4 6.30366 4 7.1666Z" fill="#FFD51E"/>
<path d="M23 7.1666C23 8.02955 22.3284 8.7291 21.5 8.7291C20.6716 8.7291 20 8.02955 20 7.1666C20 6.30366 20.6716 5.60411 21.5 5.60411C22.3284 5.60411 23 6.30366 23 7.1666Z" fill="#FFD51E"/>
</svg>
