<svg width="14" height="14" viewBox="0 0 14 14" fill="none" xmlns="http://www.w3.org/2000/svg">
<path d="M6.99984 1.75C7.38873 3.30556 8.1665 4.56944 9.33317 5.54167C10.4998 6.51389 11.0832 7.58333 11.0832 8.75C11.0832 9.83297 10.653 10.8716 9.88719 11.6374C9.12142 12.4031 8.0828 12.8333 6.99984 12.8333C5.91687 12.8333 4.87826 12.4031 4.11248 11.6374C3.34671 10.8716 2.9165 9.83297 2.9165 8.75C2.9165 8.11892 3.12119 7.50486 3.49984 7C3.49984 7.38677 3.65348 7.75771 3.92697 8.0312C4.20046 8.30469 4.5714 8.45833 4.95817 8.45833C5.34494 8.45833 5.71588 8.30469 5.98937 8.0312C6.26286 7.75771 6.4165 7.38677 6.4165 7C6.4165 5.83333 5.5415 5.25 5.5415 4.08333C5.5415 3.30556 6.02762 2.52778 6.99984 1.75Z" fill="#FF6666" stroke="#D96767" stroke-width="1.16667" stroke-linecap="round" stroke-linejoin="round"/>
</svg>
