<svg width="40" height="40" viewBox="0 0 40 40" fill="none" xmlns="http://www.w3.org/2000/svg">
<path d="M20.7233 6.38897C20.7233 5.9901 20.4 5.66675 20.0011 5.66675C19.6022 5.66675 19.2789 5.9901 19.2789 6.38897V19.2224H6.66743C6.23787 19.2224 5.88965 19.5706 5.88965 20.0002C5.88965 20.4297 6.23787 20.7779 6.66743 20.7779H19.2789V33.0556C19.2789 33.4545 19.6022 33.7779 20.0011 33.7779C20.4 33.7779 20.7233 33.4545 20.7233 33.0556V20.7779H33.3341C33.7636 20.7779 34.1119 20.4297 34.1119 20.0002C34.1119 19.5706 33.7636 19.2224 33.3341 19.2224H20.7233V6.38897Z" fill="white"/>
</svg>
