<svg width="20" height="20" viewBox="0 0 20 20" fill="none" xmlns="http://www.w3.org/2000/svg">
<path fill-rule="evenodd" clip-rule="evenodd" d="M5.41683 2.66675C4.12817 2.66675 3.0835 3.71142 3.0835 5.00008V15.0001C3.0835 16.2887 4.12816 17.3334 5.41683 17.3334H14.5835C15.8722 17.3334 16.9168 16.2887 16.9168 15.0001V5.00008C16.9168 3.71142 15.8722 2.66675 14.5835 2.66675H5.41683ZM4.41683 5.00008C4.41683 4.4478 4.86454 4.00008 5.41683 4.00008H14.5835C15.1358 4.00008 15.5835 4.4478 15.5835 5.00008V9.33341H13.7499V7.25008C13.7499 7.01996 13.5634 6.83341 13.3333 6.83341H12.8333C12.6031 6.83341 12.4166 7.01996 12.4166 7.25008V9.33341H10.6668V7.25008C10.6668 7.01996 10.4803 6.83341 10.2502 6.83341H9.75016C9.52004 6.83341 9.3335 7.01996 9.3335 7.25008V9.33341H7.58333V7.25008C7.58333 7.01996 7.39678 6.83341 7.16667 6.83341H6.66667C6.43655 6.83341 6.25 7.01996 6.25 7.25008V9.33341H4.41683V5.00008ZM4.41683 10.6667V15.0001C4.41683 15.5524 4.86454 16.0001 5.41683 16.0001H6.25V13.9167C6.25 13.6866 6.43655 13.5001 6.66667 13.5001H7.16667C7.39678 13.5001 7.58333 13.6866 7.58333 13.9167V16.0001H9.3335V13.9167C9.3335 13.6866 9.52004 13.5001 9.75016 13.5001H10.2502C10.4803 13.5001 10.6668 13.6866 10.6668 13.9167V16.0001H12.4166V13.9167C12.4166 13.6866 12.6031 13.5001 12.8333 13.5001H13.3333C13.5634 13.5001 13.7499 13.6866 13.7499 13.9167V16.0001H14.5835C15.1358 16.0001 15.5835 15.5524 15.5835 15.0001V10.6667H4.41683Z" fill="#333333"/>
</svg>
