<svg width="20" height="20" viewBox="0 0 20 20" fill="none" xmlns="http://www.w3.org/2000/svg">
<path d="M10.0004 14.9288C10.0004 15.2444 10.2562 15.5003 10.5718 15.5003H18.4289C18.7445 15.5003 19.0004 15.2444 19.0004 14.9288V14.6834C19.0004 14.3678 18.7445 14.1119 18.4289 14.1119H10.5718C10.2562 14.1119 10.0004 14.3678 10.0004 14.6834V14.9288Z" fill="#555555"/>
<path d="M10.0004 11.725C10.0004 12.0406 10.2562 12.2964 10.5718 12.2964H16.8164C17.132 12.2964 17.3878 12.0406 17.3878 11.725V11.4795C17.3878 11.1639 17.132 10.908 16.8164 10.908H10.5718C10.2562 10.908 10.0004 11.1639 10.0004 11.4795V11.725Z" fill="#555555"/>
<path d="M10.0004 8.52108C10.0004 8.83667 10.2562 9.09251 10.5718 9.09251H14.8164C15.132 9.09251 15.3878 8.83667 15.3878 8.52108V8.27559C15.3878 7.96 15.132 7.70416 14.8164 7.70416H10.5718C10.2562 7.70416 10.0004 7.96 10.0004 8.27559V8.52108Z" fill="#555555"/>
<path d="M10.0004 5.3172C10.0004 5.63279 10.2562 5.88863 10.5718 5.88863H13.9289C14.2445 5.88863 14.5004 5.63279 14.5004 5.3172V5.0717C14.5004 4.75611 14.2445 4.50028 13.9289 4.50028H10.5718C10.2562 4.50028 10.0004 4.75611 10.0004 5.07171V5.3172Z" fill="#555555"/>
<path d="M5.2577 6.08891L6.54672 7.38835C6.76896 7.61239 7.13073 7.61387 7.35479 7.39165L7.60887 7.13967C7.83292 6.91747 7.83445 6.55571 7.61228 6.33162L4.9135 3.60954C4.68995 3.38406 4.32546 3.38406 4.10191 3.60954L1.40294 6.33181C1.18084 6.55582 1.18228 6.91744 1.40616 7.13967L1.65964 7.39128C1.88367 7.61367 2.24558 7.61228 2.46789 7.38817L3.7577 6.08794V16.1942C3.7577 16.5098 4.01354 16.7657 4.32913 16.7657H4.68627C5.00186 16.7657 5.2577 16.5098 5.2577 16.1942V6.08891Z" fill="#555555"/>
</svg>
