<svg width="12" height="12" viewBox="0 0 12 12" fill="none" xmlns="http://www.w3.org/2000/svg">
<path fill-rule="evenodd" clip-rule="evenodd" d="M6.14284 5.99996C6.14284 7.56213 4.86366 8.82853 3.2857 8.82853C1.70774 8.82853 0.428558 7.56213 0.428558 5.99996C0.428558 4.43778 1.70774 3.17139 3.2857 3.17139C4.86366 3.17139 6.14284 4.43778 6.14284 5.99996ZM4.94284 5.99996C4.94284 6.88805 4.21231 7.62853 3.2857 7.62853C2.35909 7.62853 1.62856 6.88805 1.62856 5.99996C1.62856 5.11186 2.35909 4.37139 3.2857 4.37139C4.21231 4.37139 4.94284 5.11186 4.94284 5.99996Z" fill="white"/>
<path d="M6.143 3.17139V4.3971H8.2382V8.82853H9.47629V4.3971H11.5716V3.17139H6.143Z" fill="white"/>
</svg>
