<svg width="20" height="20" viewBox="0 0 20 20" fill="none" xmlns="http://www.w3.org/2000/svg">
<path d="M14.3336 9.58339C14.3336 9.35327 14.5201 9.16672 14.7502 9.16672H15.2502C15.4803 9.16672 15.6669 9.35327 15.6669 9.58339V16.2501C15.6669 16.4802 15.4803 16.6667 15.2502 16.6667H14.7502C14.5201 16.6667 14.3336 16.4802 14.3336 16.2501V9.58339Z" fill="#333333"/>
<path d="M7.66689 12.0834C7.66689 11.8533 7.85344 11.6667 8.08356 11.6667H8.58356C8.81367 11.6667 9.00022 11.8533 9.00022 12.0834V16.2501C9.00022 16.4802 8.81368 16.6667 8.58356 16.6667H8.08356C7.85344 16.6667 7.66689 16.4802 7.66689 16.2501V12.0834Z" fill="#333333"/>
<path d="M4.33356 13.7501C4.33356 13.5199 4.5201 13.3334 4.75022 13.3334H5.25022C5.48034 13.3334 5.66689 13.5199 5.66689 13.7501V16.2501C5.66689 16.4802 5.48034 16.6667 5.25022 16.6667H4.75022C4.52011 16.6667 4.33356 16.4802 4.33356 16.2501V13.7501Z" fill="#333333"/>
<path d="M11.0002 12.9167C11.0002 12.6866 11.1868 12.5001 11.4169 12.5001H11.9169C12.147 12.5001 12.3336 12.6866 12.3336 12.9167V16.2501C12.3336 16.4802 12.147 16.6667 11.9169 16.6667H11.4169C11.1868 16.6667 11.0002 16.4802 11.0002 16.2501V12.9167Z" fill="#333333"/>
<path fill-rule="evenodd" clip-rule="evenodd" d="M16.7822 3.84819C16.8148 3.60891 16.6278 3.39625 16.3864 3.39808L13.0425 3.42351C12.7029 3.42609 12.5235 3.82672 12.7478 4.08179L13.7869 5.26346L10.4564 8.19215L9.05781 6.60168C8.66272 6.15237 7.9782 6.10843 7.5289 6.50352L3.34224 10.185C3.23855 10.2762 3.22841 10.4342 3.31959 10.5378L3.86988 11.1636C3.96105 11.2673 4.11902 11.2775 4.22271 11.1863L8.22162 7.66988L9.6202 9.26036C10.0153 9.70966 10.6998 9.75361 11.1491 9.35852L14.6674 6.26474L15.6391 7.3698C15.8634 7.62487 16.2836 7.49818 16.3296 7.16163L16.7822 3.84819Z" fill="#333333"/>
</svg>
