<svg width="40" height="40" viewBox="0 0 40 40" fill="none" xmlns="http://www.w3.org/2000/svg">
<path d="M31.6498 20.0005C31.6496 26.4343 26.4342 31.6497 20.0004 31.6499C15.786 31.6499 12.0953 29.4119 10.0502 26.062V28.7798H8.75037V24.229H13.3002V25.5298H11.2504C13.0856 28.4275 16.3188 30.3501 20.0004 30.3501C25.7162 30.3499 30.3498 25.7163 30.35 20.0005H31.6498ZM22.7992 14.6997C23.3514 14.6997 23.799 15.1476 23.7992 15.6997V24.2993C23.7992 24.8516 23.3515 25.2993 22.7992 25.2993H17.1996L17.097 25.2944C16.5931 25.2429 16.1996 24.8168 16.1996 24.2993V15.6997C16.1997 15.1477 16.6476 14.6999 17.1996 14.6997H22.7992ZM17.4994 23.9995H22.4994V15.9995H17.4994V23.9995ZM20.0004 8.3501C24.1592 8.35023 27.8068 10.5304 29.8676 13.8071V11.5571H31.1674V16.1069H26.6V14.8071H28.9535C27.1606 11.7227 23.8225 9.65004 20.0004 9.6499C14.2842 9.6499 9.64978 14.2843 9.64978 20.0005H8.34998C8.34998 13.5664 13.5662 8.3501 20.0004 8.3501Z" fill="#333333"/>
</svg>
