<svg width="24" height="24" viewBox="0 0 24 24" fill="none" xmlns="http://www.w3.org/2000/svg">
<path fill-rule="evenodd" clip-rule="evenodd" d="M7.3499 2.89286L7.3499 1L8.6499 1L8.6499 2.89286L7.3499 2.89286ZM7.3499 5.5L7.3499 3.60714L8.6499 3.60714L8.6499 5.5L7.3499 5.5Z" fill="#EAEAEA"/>
<path fill-rule="evenodd" clip-rule="evenodd" d="M15.3499 2.89286L15.3499 1L16.6499 1L16.6499 2.89286L15.3499 2.89286ZM15.3499 5.5L15.3499 3.60714L16.6499 3.60714L16.6499 5.5L15.3499 5.5Z" fill="#EAEAEA"/>
<path fill-rule="evenodd" clip-rule="evenodd" d="M10.8983 5.06681C11.2596 5.02269 11.6273 5 12 5C12.3727 5 12.7404 5.02269 13.1017 5.06681L12.9547 6.2703C12.642 6.23212 12.3235 6.21244 12 6.21244C11.6765 6.21244 11.358 6.23212 11.0453 6.2703L10.8983 5.06681ZM7.56274 6.1682C8.19725 5.80799 8.88002 5.52254 9.59899 5.32398L9.92175 6.49266C9.30045 6.66425 8.71019 6.91098 8.16132 7.22258L7.56274 6.1682ZM14.401 5.32398C15.12 5.52254 15.8028 5.80799 16.4373 6.1682L15.8387 7.22258C15.2898 6.91098 14.6996 6.66425 14.0783 6.49266L14.401 5.32398ZM4.9048 8.46241C5.35849 7.88187 5.88187 7.35849 6.46241 6.9048L7.20899 7.86011C6.70627 8.25299 6.25299 8.70627 5.86011 9.20899L4.9048 8.46241ZM17.5376 6.9048C18.1181 7.35849 18.6415 7.88187 19.0952 8.46241L18.1399 9.20899C17.747 8.70627 17.2937 8.25299 16.791 7.86011L17.5376 6.9048ZM3.32398 11.599C3.52254 10.88 3.80799 10.1972 4.1682 9.56274L5.22258 10.1613C4.91098 10.7102 4.66425 11.3004 4.49266 11.9217L3.32398 11.599ZM19.8318 9.56274C20.192 10.1972 20.4775 10.88 20.676 11.599L19.5073 11.9217C19.3358 11.3004 19.089 10.7102 18.7774 10.1613L19.8318 9.56274ZM3 14C3 13.6273 3.02269 13.2596 3.06681 12.8983L4.2703 13.0453C4.23212 13.358 4.21244 13.6765 4.21244 14C4.21244 14.3235 4.23212 14.642 4.2703 14.9547L3.06681 15.1017C3.02269 14.7404 3 14.3727 3 14ZM20.9332 12.8983C20.9773 13.2596 21 13.6273 21 14C21 14.3727 20.9773 14.7404 20.9332 15.1017L19.7297 14.9547C19.7679 14.642 19.7876 14.3235 19.7876 14C19.7876 13.6765 19.7679 13.358 19.7297 13.0453L20.9332 12.8983ZM4.1682 18.4373C3.80799 17.8028 3.52254 17.12 3.32398 16.401L4.49266 16.0783C4.66425 16.6996 4.91098 17.2898 5.22258 17.8387L4.1682 18.4373ZM20.676 16.401C20.4775 17.12 20.192 17.8028 19.8318 18.4373L18.7774 17.8387C19.089 17.2898 19.3358 16.6996 19.5073 16.0783L20.676 16.401ZM6.46241 21.0952C5.88187 20.6415 5.35849 20.1181 4.9048 19.5376L5.86011 18.791C6.25299 19.2937 6.70627 19.747 7.20899 20.1399L6.46241 21.0952ZM19.0952 19.5376C18.6415 20.1181 18.1181 20.6415 17.5376 21.0952L16.791 20.1399C17.2937 19.747 17.747 19.2937 18.1399 18.791L19.0952 19.5376ZM9.59899 22.676C8.88002 22.4775 8.19725 22.192 7.56274 21.8318L8.16132 20.7774C8.71019 21.089 9.30045 21.3358 9.92175 21.5073L9.59899 22.676ZM16.4373 21.8318C15.8028 22.192 15.12 22.4775 14.401 22.676L14.0783 21.5073C14.6996 21.3358 15.2898 21.089 15.8387 20.7774L16.4373 21.8318ZM12 23C11.6273 23 11.2596 22.9773 10.8983 22.9332L11.0453 21.7297C11.358 21.7679 11.6765 21.7876 12 21.7876C12.3235 21.7876 12.642 21.7679 12.9547 21.7297L13.1017 22.9332C12.7404 22.9773 12.3727 23 12 23Z" fill="#EAEAEA"/>
<path fill-rule="evenodd" clip-rule="evenodd" d="M10.9172 7.43793C11.27 7.3801 11.6318 7.3501 12.0001 7.3501C12.3684 7.3501 12.7302 7.3801 13.083 7.43793L12.8728 8.72082C12.5892 8.67434 12.2977 8.6501 12.0001 8.6501C11.7025 8.6501 11.411 8.67434 11.1274 8.72082L10.9172 7.43793ZM14.3433 7.77487C15.0303 8.03356 15.6627 8.40244 16.2192 8.85963L15.3939 9.86408C14.9456 9.4958 14.4369 9.19923 13.8852 8.99147L14.3433 7.77487ZM7.78104 8.85963C8.3375 8.40244 8.96992 8.03356 9.65689 7.77487L10.115 8.99147C9.56331 9.19923 9.05456 9.4958 8.60632 9.86408L7.78104 8.85963ZM17.1406 9.78104C17.5978 10.3375 17.9666 10.9699 18.2253 11.6569L17.0087 12.115C16.801 11.5633 16.5044 11.0546 16.1361 10.6063L17.1406 9.78104ZM5.77487 11.6569C6.03356 10.9699 6.40244 10.3375 6.85963 9.78104L7.86408 10.6063C7.4958 11.0546 7.19923 11.5633 6.99147 12.115L5.77487 11.6569ZM18.5623 12.9172C18.6201 13.27 18.6501 13.6318 18.6501 14.0001C18.6501 14.3684 18.6201 14.7302 18.5623 15.083L17.2794 14.8728C17.3259 14.5892 17.3501 14.2977 17.3501 14.0001C17.3501 13.7025 17.3259 13.411 17.2794 13.1274L18.5623 12.9172ZM5.3501 14.0001C5.3501 13.6318 5.3801 13.27 5.43793 12.9172L6.72082 13.1274C6.67434 13.411 6.6501 13.7025 6.6501 14.0001C6.6501 14.2977 6.67434 14.5892 6.72082 14.8728L5.43793 15.083C5.3801 14.7302 5.3501 14.3684 5.3501 14.0001ZM6.85963 18.2192C6.40244 17.6627 6.03356 17.0303 5.77487 16.3433L6.99147 15.8852C7.19923 16.4369 7.4958 16.9456 7.86408 17.3939L6.85963 18.2192ZM18.2253 16.3433C17.9666 17.0303 17.5978 17.6627 17.1406 18.2192L16.1361 17.3939C16.5044 16.9456 16.801 16.4369 17.0087 15.8852L18.2253 16.3433ZM9.65689 20.2253C8.96992 19.9666 8.3375 19.5978 7.78104 19.1406L8.60632 18.1361C9.05456 18.5044 9.56331 18.801 10.115 19.0087L9.65689 20.2253ZM16.2192 19.1406C15.6627 19.5978 15.0303 19.9666 14.3433 20.2253L13.8852 19.0087C14.4369 18.801 14.9456 18.5044 15.3939 18.1361L16.2192 19.1406ZM13.083 20.5623C12.7302 20.6201 12.3684 20.6501 12.0001 20.6501C11.6318 20.6501 11.27 20.6201 10.9172 20.5623L11.1274 19.2794C11.411 19.3259 11.7025 19.3501 12.0001 19.3501C12.2977 19.3501 12.5892 19.3259 12.8728 19.2794L13.083 20.5623Z" fill="#EAEAEA"/>
</svg>
