<svg width="24" height="24" viewBox="0 0 24 24" fill="none" xmlns="http://www.w3.org/2000/svg">
<path fill-rule="evenodd" clip-rule="evenodd" d="M1.34961 6.0001C1.34961 3.43197 3.43149 1.3501 5.99961 1.3501H17.9996C20.5677 1.3501 22.6496 3.43197 22.6496 6.0001V18.0001C22.6496 20.5682 20.5677 22.6501 17.9996 22.6501H5.99961C3.43148 22.6501 1.34961 20.5682 1.34961 18.0001V6.0001ZM5.99961 2.6501C4.14946 2.6501 2.64961 4.14994 2.64961 6.0001V18.0001C2.64961 19.8503 4.14946 21.3501 5.99961 21.3501H17.9996C19.8498 21.3501 21.3496 19.8503 21.3496 18.0001V6.0001C21.3496 4.14994 19.8498 2.6501 17.9996 2.6501H5.99961Z" fill="#555555"/>
<path d="M5.99961 7.0001C5.44732 7.0001 4.99961 7.44781 4.99961 8.0001V16.0001C4.99961 16.5524 5.44732 17.0001 5.99961 17.0001H6.99961V7.0001H5.99961Z" fill="#555555"/>
<path d="M14.9996 7.0001H12.9996V17.0001H14.9996V7.0001Z" fill="#555555"/>
<path d="M7.99961 7.0001H8.99961V17.0001H7.99961V7.0001Z" fill="#555555"/>
<path d="M16.9996 7.0001H15.9996V17.0001H16.9996V7.0001Z" fill="#555555"/>
<path d="M10.9996 7.0001H11.9996V17.0001H10.9996V7.0001Z" fill="#555555"/>
<path d="M18.9996 8.0001C18.9996 7.44781 18.5519 7.0001 17.9996 7.0001V17.0001C18.5519 17.0001 18.9996 16.5524 18.9996 16.0001V8.0001Z" fill="#555555"/>
</svg>
