<svg width="24" height="24" viewBox="0 0 24 24" fill="none" xmlns="http://www.w3.org/2000/svg">
<path d="M6.89258 1V2.5H2.5V6.89258H1V1H6.89258Z" fill="#333333"/>
<path d="M6.89258 23V21.5H2.5V17.1074H1V23H6.89258Z" fill="#333333"/>
<path d="M17.1074 1V2.5H21.5V6.89258H23V1H17.1074Z" fill="#333333"/>
<path d="M17.1074 23V21.5H21.5V17.1074H23V23H17.1074Z" fill="#333333"/>
<path d="M4 6.85742H6.57143V17.1431H4V6.85742Z" fill="#333333"/>
<path d="M7.57141 6.85742H9.2857V17.1431H7.57141V6.85742Z" fill="#333333"/>
<path d="M18.2857 6.85742H20V17.1431H18.2857V6.85742Z" fill="#333333"/>
<path d="M10.2857 6.85742H13.7143V17.1431H10.2857V6.85742Z" fill="#333333"/>
<path d="M14.7143 6.85742H17.2857V17.1431H14.7143V6.85742Z" fill="#333333"/>
</svg>
