<svg width="20" height="20" viewBox="0 0 20 20" fill="none" xmlns="http://www.w3.org/2000/svg">
<path d="M11.4239 8.90095C11.9121 9.38911 12.7035 9.38911 13.1917 8.90095C13.6798 8.4128 13.6798 7.62134 13.1917 7.13319C12.7035 6.64503 11.9121 6.64503 11.4239 7.13319C10.9357 7.62134 10.9357 8.4128 11.4239 8.90095Z" fill="#333333"/>
<path fill-rule="evenodd" clip-rule="evenodd" d="M17.274 5.34906C17.1656 4.1573 16.2214 3.21306 15.0296 3.10472L10.5844 2.70062C9.85169 2.63401 9.12726 2.89629 8.60703 3.41651L3.07643 8.94699C2.10832 9.91508 2.10831 11.4847 3.07643 12.4528L7.92574 17.302C8.89385 18.2701 10.4635 18.2701 11.4316 17.302L16.9622 11.7715C17.4824 11.2513 17.7447 10.5269 17.6781 9.79417L17.274 5.34906ZM14.9089 4.43257C15.4597 4.48264 15.896 4.91901 15.9461 5.46978L16.3502 9.91489C16.381 10.2535 16.2598 10.5883 16.0194 10.8287L10.4888 16.3592C10.0414 16.8066 9.31597 16.8066 8.86856 16.3592L4.01924 11.51C3.57184 11.0626 3.57184 10.3372 4.01925 9.88979L9.54985 4.35931C9.79027 4.11889 10.1251 3.99768 10.4637 4.02847L14.9089 4.43257Z" fill="#333333"/>
</svg>
