<svg width="36" height="36" viewBox="0 0 36 36" fill="none" xmlns="http://www.w3.org/2000/svg">
<path fill-rule="evenodd" clip-rule="evenodd" d="M8.34998 10.0001C8.34998 7.98426 9.98414 6.3501 12 6.3501H23C25.0158 6.3501 26.65 7.98426 26.65 10.0001V25.0001C26.65 27.0159 25.0158 28.6501 23 28.6501H12C9.98414 28.6501 8.34998 27.0159 8.34998 25.0001V10.0001ZM12 7.6501C10.7021 7.6501 9.64998 8.70223 9.64998 10.0001V25.0001C9.64998 26.298 10.7021 27.3501 12 27.3501H23C24.2978 27.3501 25.35 26.298 25.35 25.0001V10.0001C25.35 8.70223 24.2978 7.6501 23 7.6501H12Z" fill="#333333"/>
<path fill-rule="evenodd" clip-rule="evenodd" d="M12.35 12.5001C12.35 11.865 12.8648 11.3501 13.5 11.3501H15.5C16.1351 11.3501 16.65 11.865 16.65 12.5001V14.5001C16.65 15.1352 16.1351 15.6501 15.5 15.6501H13.5C12.8648 15.6501 12.35 15.1352 12.35 14.5001V12.5001ZM13.65 12.6501V14.3501H15.35V12.6501H13.65Z" fill="#333333"/>
<path fill-rule="evenodd" clip-rule="evenodd" d="M12.35 18.5001C12.35 17.865 12.8648 17.3501 13.5 17.3501H15.5C16.1351 17.3501 16.65 17.865 16.65 18.5001V20.5001C16.65 21.1352 16.1351 21.6501 15.5 21.6501H13.5C12.8648 21.6501 12.35 21.1352 12.35 20.5001V18.5001ZM13.65 18.6501V20.3501H15.35V18.6501H13.65Z" fill="#333333"/>
<path fill-rule="evenodd" clip-rule="evenodd" d="M18.35 12.5001C18.35 11.865 18.8648 11.3501 19.5 11.3501H21.5C22.1351 11.3501 22.65 11.865 22.65 12.5001V14.5001C22.65 15.1352 22.1351 15.6501 21.5 15.6501H19.5C18.8648 15.6501 18.35 15.1352 18.35 14.5001V12.5001ZM19.65 12.6501V14.3501H21.35V12.6501H19.65Z" fill="#333333"/>
<path d="M30 25C30 27.7614 27.7614 30 25 30C22.2386 30 20 27.7614 20 25C20 22.2386 22.2386 20 25 20C27.7614 20 30 22.2386 30 25Z" fill="#3299FE"/>
<path fill-rule="evenodd" clip-rule="evenodd" d="M31.3 25.0002C31.3 28.4796 28.4793 31.3002 25 31.3002C21.5206 31.3002 18.7 28.4796 18.7 25.0002C18.7 21.5208 21.5206 18.7002 25 18.7002C28.4793 18.7002 31.3 21.5208 31.3 25.0002ZM25 30.0002C27.7614 30.0002 30 27.7616 30 25.0002C30 22.2388 27.7614 20.0002 25 20.0002C22.2385 20.0002 20 22.2388 20 25.0002C20 27.7616 22.2385 30.0002 25 30.0002Z" fill="#333333"/>
<path fill-rule="evenodd" clip-rule="evenodd" d="M25 22.3501C25.359 22.3501 25.65 22.6411 25.65 23.0001V24.3501H27C27.359 24.3501 27.65 24.6411 27.65 25.0001C27.65 25.3591 27.359 25.6501 27 25.6501H25.65V27.0001C25.65 27.3591 25.359 27.6501 25 27.6501C24.641 27.6501 24.35 27.3591 24.35 27.0001V25.6501H23C22.641 25.6501 22.35 25.3591 22.35 25.0001C22.35 24.6411 22.641 24.3501 23 24.3501H24.35V23.0001C24.35 22.6411 24.641 22.3501 25 22.3501Z" fill="white"/>
</svg>
