<svg width="14" height="14" viewBox="0 0 14 14" fill="none" xmlns="http://www.w3.org/2000/svg">
<path d="M1 2.5C1 2.1134 1.3134 1.8 1.7 1.8H12.3C12.6866 1.8 13 2.1134 13 2.5V3.1C13 3.4866 12.6866 3.8 12.3 3.8H1.7C1.3134 3.8 1 3.4866 1 3.1V2.5Z" fill="#FF7979"/>
<path d="M4.5 1.2C4.5 0.813401 4.8134 0.5 5.2 0.5H8.8C9.1866 0.5 9.5 0.813401 9.5 1.2C9.5 1.53137 9.23137 1.8 8.9 1.8H5.1C4.76863 1.8 4.5 1.53137 4.5 1.2Z" fill="#FF7979"/>
<path fill-rule="evenodd" clip-rule="evenodd" d="M2.51368 4.2998C2.23235 4.2998 2.00641 4.53181 2.01385 4.81303L2.18686 11.3527C2.21552 12.4363 3.10219 13.2998 4.18616 13.2998H9.81439C10.8984 13.2998 11.785 12.4363 11.8137 11.3527L11.9867 4.81303C11.9941 4.5318 11.7682 4.2998 11.4869 4.2998H2.51368ZM5.39053 7.2125C5.39053 6.98458 5.1912 6.7998 4.94532 6.7998C4.69944 6.7998 4.50012 6.98458 4.50012 7.2125V10.3871C4.50012 10.615 4.69944 10.7998 4.94532 10.7998C5.1912 10.7998 5.39053 10.615 5.39053 10.3871V7.2125ZM7.44532 7.2125C7.44532 6.98458 7.246 6.7998 7.00012 6.7998C6.75424 6.7998 6.55491 6.98458 6.55491 7.2125V10.3871C6.55491 10.615 6.75424 10.7998 7.00012 10.7998C7.246 10.7998 7.44532 10.615 7.44532 10.3871V7.2125ZM9.50012 7.2125C9.50012 6.98458 9.30079 6.7998 9.05491 6.7998C8.80903 6.7998 8.6097 6.98458 8.6097 7.2125V10.3871C8.6097 10.615 8.80903 10.7998 9.05491 10.7998C9.30079 10.7998 9.50012 10.615 9.50012 10.3871V7.2125Z" fill="#FF7979"/>
</svg>
