<svg width="24" height="24" viewBox="0 0 24 24" fill="none" xmlns="http://www.w3.org/2000/svg">
<g clip-path="url(#clip0_1098_4125)">
<path d="M14.9414 8.19019C18.1166 8.19071 20.6914 10.7649 20.6914 13.9402C20.6913 15.2573 20.2461 16.4698 19.501 17.4392L23.001 20.9392L21.9404 21.9998L18.4404 18.4998C17.471 19.2448 16.2585 19.69 14.9414 19.6902C11.7659 19.6902 9.19167 17.1156 9.19141 13.9402C9.19141 10.7645 11.7658 8.19019 14.9414 8.19019ZM7 19.9998H1V18.4998H7V19.9998ZM14.9414 9.69019C12.5942 9.69019 10.6914 11.593 10.6914 13.9402C10.6917 16.2872 12.5944 18.1902 14.9414 18.1902C17.288 18.1897 19.1911 16.2868 19.1914 13.9402C19.1914 11.5933 17.2882 9.69071 14.9414 9.69019ZM7 11.9998H1V10.4998H7V11.9998ZM22 3.99976H1V2.49976H22V3.99976Z" fill="#333333"/>
</g>
<defs>
<clipPath id="clip0_1098_4125">
<rect width="24" height="24" fill="white"/>
</clipPath>
</defs>
</svg>
