<svg width="14" height="14" viewBox="0 0 14 14" fill="none" xmlns="http://www.w3.org/2000/svg">
<path d="M7.6499 1.63415C7.6499 1.28392 7.36599 1 7.01576 1C6.66553 1 6.38161 1.28392 6.38161 1.63415V6.38173L1.63415 6.38173C1.28392 6.38173 1 6.66565 1 7.01588C1 7.36611 1.28392 7.65002 1.63415 7.65002L6.38161 7.65002V12.3659C6.38161 12.7161 6.66553 13 7.01576 13C7.36598 13 7.6499 12.7161 7.6499 12.3659V7.65002L12.3659 7.65002C12.7161 7.65002 13 7.36611 13 7.01588C13 6.66565 12.7161 6.38173 12.3659 6.38173L7.6499 6.38173V1.63415Z" fill="#333333"/>
</svg>
