<svg width="16" height="16" viewBox="0 0 16 16" fill="none" xmlns="http://www.w3.org/2000/svg">
<path d="M0 0H16V16H0V0Z" fill="white" fill-opacity="0.1"/>
<path d="M1.55134 10.2857H2.40848V6.64955H1.55134V10.2857ZM1.49107 5.66518C1.49107 5.92299 1.7154 6.13058 1.98661 6.13393C2.25781 6.13058 2.48214 5.92299 2.48214 5.66518C2.48214 5.41071 2.25781 5.20312 1.98661 5.20312C1.7154 5.20312 1.49107 5.41071 1.49107 5.66518Z" fill="#9A9A9A"/>
<path d="M4.8125 10.3594C5.72656 10.3594 6.30915 9.81362 6.37277 9.04688H5.5558C5.4788 9.43862 5.19755 9.6596 4.8192 9.66295C4.28348 9.6596 3.93527 9.21429 3.93527 8.46429C3.93527 7.73103 4.29018 7.28906 4.8192 7.28571C5.23438 7.28906 5.48884 7.55357 5.5558 7.90179H6.37277C6.3125 7.1183 5.69308 6.60268 4.8125 6.60268C3.74777 6.60268 3.07143 7.36942 3.07143 8.48438C3.07143 9.58259 3.72768 10.3594 4.8125 10.3594Z" fill="#9A9A9A"/>
<path d="M8.60268 10.3594C9.66741 10.3594 10.3471 9.60603 10.3438 8.48438C10.3471 7.35268 9.66741 6.60268 8.60268 6.60268C7.5413 6.60268 6.86161 7.35268 6.86161 8.48438C6.86161 9.60603 7.5413 10.3594 8.60268 10.3594ZM7.72545 8.47768C7.72545 7.81138 8.01674 7.27567 8.60938 7.27902C9.19197 7.27567 9.48326 7.81138 9.47991 8.47768C9.48326 9.14397 9.19197 9.67634 8.60938 9.67634C8.01674 9.67634 7.72545 9.14397 7.72545 8.47768Z" fill="#9A9A9A"/>
<path d="M11.8638 8.15625C11.8638 7.62723 12.1819 7.32255 12.6339 7.32589C13.0792 7.32255 13.3438 7.61384 13.3438 8.10268V10.2857H14.1942V7.96875C14.1975 7.09821 13.702 6.60268 12.9487 6.60268C12.4063 6.60268 12.0346 6.86049 11.8705 7.26563H11.8237V6.64955H11.0067V10.2857H11.8638V8.15625Z" fill="#9A9A9A"/>
</svg>
